Coordinates
version=1
nRows=14
nColumns=24
inDegrees=yes

Units are S.I. units (second, meters, Newtons, ...)
Angles are in degrees.

endheader
time	torso_tilt	torso_list	torso_rotation	torso_tx	torso_ty	torso_tz	lumbar_extension	lumbar_bending	lumbar_rotation	hip_flexion_r	hip_adduction_r	hip_rotation_r	knee_angle_r	ankle_angle_r	subtalar_angle_r	mtp_angle_r	hip_flexion_l	hip_adduction_l	hip_rotation_l	knee_angle_l	ankle_angle_l	subtalar_angle_l	mtp_angle_l
      0.00000000	    -15.39591452	     -0.74031972	     -1.46504032	     -0.00742909	      0.97140074	      0.04430346	     15.87433091	      0.59518247	      7.49500606	     13.06029549	     -0.51218210	     -9.17616380	    -91.29955474	      7.07873195	    -10.26002494	      0.00000000	      5.43564688	      1.19415477	     -2.36369307	    -37.60334003	     28.82236515	      6.58253912	      0.00000000
      0.01000000	    -15.30548795	     -0.29818208	     -2.86391640	     -0.00662450	      0.97983421	      0.04373391	     15.18882648	      0.01110322	      8.34702127	     14.94335380	      0.16276360	     -8.81169708	    -87.74246129	      8.54548893	     -9.83836387	      0.00000000	      3.35095535	      0.46861742	     -2.77671164	    -34.84333132	     25.48857821	      6.46029202	      0.00000000
      0.02000000	    -15.18137091	      0.16006950	     -4.18183154	     -0.00554919	      0.98883012	      0.04313590	     14.64911227	     -0.64703870	      9.17461591	     16.37808692	      0.86967355	     -8.57209561	    -83.55104208	      9.76483606	     -9.57040881	      0.00000000	      1.14725650	     -0.26029718	     -3.28678798	    -31.99153767	     21.58245761	      6.27648692	      0.00000000
      0.03000000	    -15.06650712	      0.61874898	     -5.41775018	     -0.00442214	      0.99786469	      0.04274809	     14.22264092	     -1.24977874	     10.04681945	     17.47484659	      1.44611956	     -8.62226056	    -78.96114982	     10.82650464	     -9.58853931	      0.00000000	     -0.98073318	     -0.86668471	     -3.77879554	    -29.30456061	     17.21572630	      6.07506279	      0.00000000
      0.04000000	    -14.96058189	      0.99928519	     -6.56310769	     -0.00335501	      1.00659344	      0.04280314	     13.94860125	     -1.69131072	     10.87017927	     18.19531320	      1.96632007	     -8.67918086	    -73.94747169	     11.39325700	     -9.61928597	      0.00000000	     -3.04236177	     -1.39391278	     -4.34624388	    -26.89996329	     12.56301497	      6.21302888	      0.00000000
      0.05000000	    -14.87917013	      1.35170727	     -7.50604445	     -0.00235195	      1.01517519	      0.04290410	     13.70987387	     -2.06579427	     11.52889704	     18.69359182	      2.38230658	     -8.70163705	    -68.58127155	     11.89814635	     -9.21211040	      0.00000000	     -4.87452782	     -1.79660641	     -4.94009008	    -24.79790514	      7.47790246	      6.29682381	      0.00000000
      0.06000000	    -14.69177555	      1.62285540	     -8.35520607	     -0.00064786	      1.02322478	      0.04340183	     13.32242454	     -2.31203168	     12.07350796	     18.97981378	      2.74167198	     -8.62156118	    -62.87306467	     12.34470802	     -8.61964071	      0.00000000	     -6.55048034	     -2.10620008	     -5.54529221	    -22.87745089	      2.27988807	      6.23033332	      0.00000000
      0.07000000	    -14.51100972	      1.86173530	     -9.14563020	      0.00103992	      1.03062269	      0.04400989	     12.74635911	     -2.39186675	     12.50805276	     19.35553537	      2.88803018	     -8.49799644	    -57.03529833	     12.68801848	     -7.95719300	      0.00000000	     -7.75726889	     -2.15370332	     -5.96616165	    -21.45869701	     -2.59465069	      5.99568605	      0.00000000
      0.08000000	    -14.35319634	      2.04561157	     -9.73197296	      0.00260590	      1.03732277	      0.04478361	     11.90819743	     -2.29197163	     12.74840901	     19.93641685	      2.76794882	     -8.36327464	    -51.23962325	     12.89054212	     -7.19076901	      0.00000000	     -8.37395355	     -1.89927915	     -5.96565720	    -20.61430680	     -6.89188279	      5.42419589	      0.00000000
      0.09000000	    -14.11538636	      2.16618923	    -10.25917673	      0.00452591	      1.04326341	      0.04586430	     10.79944482	     -2.00187280	     12.86709991	     20.59208176	      2.44809899	     -8.04997903	    -45.51289954	     13.00624645	     -6.10056242	      0.00000000	     -8.61308560	     -1.40182276	     -5.87050461	    -20.30868225	    -10.27613790	      4.86657281	      0.00000000
      0.10000000	    -13.87664648	      2.23185707	    -10.68813264	      0.00627042	      1.04801005	      0.04721199	      9.56293649	     -1.50543222	     12.83857760	     21.32373805	      1.93695934	     -7.64332940	    -39.93361259	     13.08853673	     -4.83519652	      0.00000000	     -8.46652442	     -0.65175082	     -5.71380617	    -20.69741095	    -13.18056426	      3.89082494	      0.00000000
      0.11000000	    -13.63766794	      2.26379366	    -11.03803127	      0.00780436	      1.05148328	      0.04871059	      8.30464749	     -0.90345333	     12.71455642	     22.02758667	      1.35363438	     -7.12038421	    -34.59990091	     13.24666412	     -3.33357353	      0.00000000	     -8.00908924	      0.21658680	     -5.64778127	    -21.75838967	    -16.11217712	      2.34382409	      0.00000000
      0.12000000	    -13.42111204	      2.24887640	    -11.28542179	      0.00908008	      1.05393901	      0.05042198	      7.13498210	     -0.28527545	     12.56350317	     22.56273185	      0.78920733	     -6.50712798	    -29.35675953	     13.44519254	     -1.49165068	      0.00000000	     -7.30212869	      1.00810903	     -5.68583128	    -23.60170725	    -18.92500147	      1.09709711	      0.00000000
      0.13000000	    -13.21074283	      2.27547089	    -11.45928774	      0.01017904	      1.05505582	      0.05176233	      6.25154913	      0.23446535	     12.24680316	     22.75847467	      0.35114217	     -5.74878729	    -24.34320558	     13.86507291	      0.24238792	      0.00000000	     -6.71675817	      1.70554363	     -5.78057165	    -25.97401894	    -21.48651898	      0.05601071	      0.00000000
